<svg width="52" height="52" viewBox="0 0 52 52" fill="none" xmlns="http://www.w3.org/2000/svg">
<path d="M47 16.6667C49.5774 16.6667 51.6666 18.756 51.6666 21.3334V30.6667C51.6666 33.2441 49.5774 35.3334 47 35.3334H44.5222C43.374 44.5414 35.519 51.6667 26 51.6667V47C33.7319 47 40 40.732 40 33V19C40 11.2681 33.7319 5.00004 26 5.00004C18.268 5.00004 12 11.2681 12 19V35.3334H4.99998C2.42265 35.3334 0.333313 33.2441 0.333313 30.6667V21.3334C0.333313 18.756 2.42265 16.6667 4.99998 16.6667H7.47772C8.62596 7.45865 16.4809 0.333374 26 0.333374C35.519 0.333374 43.374 7.45865 44.5222 16.6667H47ZM16.1053 34.8315L18.579 30.8737C20.7304 32.2212 23.2742 33 26 33C28.7258 33 31.2696 32.2212 33.4209 30.8737L35.8947 34.8315C33.0261 36.6281 29.6344 37.6667 26 37.6667C22.3656 37.6667 18.9739 36.6281 16.1053 34.8315Z" fill="#1A73E8"/>
</svg>
